# xmcd
#
# Track frame offsets:
#	150
#	19058
#	37243
#	53516
#	72382
#	93824
#	115366
#	135108
#	150324
#	170553
#	187725
#	209898
#	229851
#	245198
#	265872
#	283836
#	303086
#	321307
#
# Disc length: 4513 seconds
#
# Revision: 1
# Processed by: cddbd v1.5.1PL2 Copyright (c) Steve Scherf et al.
# Submitted via: EasyCDDAExtractor 5.0.7
#
DISCID=fd119f12
DTITLE=劉德華 - 繼續談情 - Disc1
DYEAR=1900
DGENRE=
TTITLE0=繼續談情
TTITLE1=下次不敢
TTITLE2=天比高
TTITLE3=我得你
TTITLE4=原來我有愛
TTITLE5=太想愛
TTITLE6=自作自受
TTITLE7=無間道
TTITLE8=繼續談情..相聚篇
TTITLE9=我得你 The invisible ACAP Ella mix
TTITLE10=那一天
TTITLE11=繼續談情..分離篇
TTITLE12=恭喜發財
TTITLE13=再說一次, 我愛你
TTITLE14=缺陷美
TTITLE15=無出息的漢子
TTITLE16=如果我有事
TTITLE17=暗裡著迷
EXTD=
EXTT0=
EXTT1=
EXTT2=
EXTT3=
EXTT4=
EXTT5=
EXTT6=
EXTT7=
EXTT8=
EXTT9=
EXTT10=
EXTT11=
EXTT12=
EXTT13=
EXTT14=
EXTT15=
EXTT16=
EXTT17=
PLAYORDER=
